<svg width="40.111038" height="40.000000" viewBox="0 0 40.111 40" fill="none" xmlns="http://www.w3.org/2000/svg" xmlns:xlink="http://www.w3.org/1999/xlink">
	<desc>
			Created with Pixso.
	</desc>
	<defs>
		<clipPath id="clip202_99">
			<rect id="behance" rx="-0.500000" width="39.111034" height="39.000000" transform="translate(0.500000 0.500000)" fill="white" fill-opacity="0"/>
		</clipPath>
	</defs>
	<rect id="behance" rx="-0.500000" width="39.111034" height="39.000000" transform="translate(0.500000 0.500000)" fill="#FFFFFF" fill-opacity="0"/>
	<g clip-path="url(#clip202_99)">
		<path id="Vector" d="M34.23 0L5.87 0C2.63 0 0 2.62 0 5.85L0 34.14C0 37.37 2.63 40 5.87 40L34.23 40C37.47 40 40.11 37.37 40.11 34.14L40.11 5.85C40.11 2.62 37.47 0 34.23 0ZM37.76 34.14C37.76 36.07 36.17 37.65 34.23 37.65L5.87 37.65C3.93 37.65 2.35 36.07 2.35 34.14L2.35 5.85C2.35 3.92 3.93 2.34 5.87 2.34L34.23 2.34C36.17 2.34 37.76 3.92 37.76 5.85L37.76 34.14Z" fill="#070707" fill-opacity="1.000000" fill-rule="nonzero"/>
		<path id="Vector" d="M5.87 0C2.63 0 0 2.62 0 5.85L0 34.14C0 37.37 2.63 40 5.87 40L34.23 40C37.47 40 40.11 37.37 40.11 34.14L40.11 5.85C40.11 2.62 37.47 0 34.23 0L5.87 0ZM34.23 37.65L5.87 37.65C3.93 37.65 2.35 36.07 2.35 34.14L2.35 5.85C2.35 3.92 3.93 2.34 5.87 2.34L34.23 2.34C36.17 2.34 37.76 3.92 37.76 5.85L37.76 34.14C37.76 36.07 36.17 37.65 34.23 37.65Z" stroke="#070707" stroke-opacity="1.000000" stroke-width="0.500000"/>
		<path id="Vector" d="M18.88 16.48C18.88 13.89 16.77 11.79 14.17 11.79L7.12 11.79L7.12 28.2L14.17 28.2C16.77 28.2 18.88 26.1 18.88 23.51C18.88 22.11 18.26 20.85 17.28 20C18.26 19.14 18.88 17.88 18.88 16.48ZM16.53 23.51C16.53 24.8 15.47 25.85 14.17 25.85L9.47 25.85L9.47 21.17L14.17 21.17C15.47 21.17 16.53 22.22 16.53 23.51ZM9.47 18.82L9.47 14.14L14.17 14.14C15.47 14.14 16.53 15.19 16.53 16.48C16.53 17.77 15.47 18.82 14.17 18.82L9.47 18.82Z" fill="#070707" fill-opacity="1.000000" fill-rule="nonzero"/>
		<path id="Vector" d="M14.17 11.79L7.12 11.79L7.12 28.2L14.17 28.2C16.77 28.2 18.88 26.1 18.88 23.51C18.88 22.11 18.26 20.85 17.28 20C18.26 19.14 18.88 17.88 18.88 16.48C18.88 13.89 16.77 11.79 14.17 11.79ZM14.17 25.85L9.47 25.85L9.47 21.17L14.17 21.17C15.47 21.17 16.53 22.22 16.53 23.51C16.53 24.8 15.47 25.85 14.17 25.85ZM9.47 14.14L14.17 14.14C15.47 14.14 16.53 15.19 16.53 16.48C16.53 17.77 15.47 18.82 14.17 18.82L9.47 18.82L9.47 14.14Z" stroke="#070707" stroke-opacity="1.000000" stroke-width="0.500000"/>
		<path id="Vector" d="M27.1 16.48C23.86 16.48 21.23 19.11 21.23 22.34C21.23 25.57 23.86 28.2 27.1 28.2C29.19 28.2 31.14 27.08 32.19 25.27L30.16 24.1C29.53 25.18 28.36 25.85 27.1 25.85C25.57 25.85 24.26 24.87 23.78 23.51L32.98 23.51L32.98 22.34C32.98 19.11 30.34 16.48 27.1 16.48ZM23.78 21.17C24.26 19.8 25.57 18.82 27.1 18.82C28.63 18.82 29.94 19.8 30.43 21.17L23.78 21.17Z" fill="#070707" fill-opacity="1.000000" fill-rule="nonzero"/>
		<path id="Vector" d="M21.23 22.34C21.23 25.57 23.86 28.2 27.1 28.2C29.19 28.2 31.14 27.08 32.19 25.27L30.16 24.1C29.53 25.18 28.36 25.85 27.1 25.85C25.57 25.85 24.26 24.87 23.78 23.51L32.98 23.51L32.98 22.34C32.98 19.11 30.34 16.48 27.1 16.48C23.86 16.48 21.23 19.11 21.23 22.34ZM27.1 18.82C28.63 18.82 29.94 19.8 30.43 21.17L23.78 21.17C24.26 19.8 25.57 18.82 27.1 18.82Z" stroke="#070707" stroke-opacity="1.000000" stroke-width="0.500000"/>
		<path id="Vector" d="M22.4 11.79L31.8 11.79L31.8 14.14L22.4 14.14L22.4 11.79Z" fill="#070707" fill-opacity="1.000000" fill-rule="nonzero"/>
		<path id="Vector" d="M31.8 11.79L31.8 14.14L22.4 14.14L22.4 11.79L31.8 11.79Z" stroke="#070707" stroke-opacity="1.000000" stroke-width="0.500000"/>
	</g>
</svg>
