<svg width="39.108246" height="39.998047" viewBox="0 0 39.1082 39.998" fill="none" xmlns="http://www.w3.org/2000/svg" xmlns:xlink="http://www.w3.org/1999/xlink">
	<desc>
			Created with Pixso.
	</desc>
	<defs/>
	<path id="Vector" d="M19.55 0C8.78 0 0 8.98 0 19.99C0 31.01 8.78 39.99 19.55 39.99C30.32 39.99 39.1 31.01 39.1 19.99C39.1 8.98 30.32 0 19.55 0ZM19.55 3.07C23.48 3.07 27.07 4.47 29.9 6.8C28.46 8.61 25.82 11.12 21.39 12.76C18.99 8.31 16.97 5.47 15.57 3.58C16.84 3.26 18.18 3.07 19.55 3.07ZM12.59 4.66C13.77 6.21 15.89 9.12 18.42 13.68C11.92 15.42 6.06 15.53 3.61 15.46C4.92 10.65 8.23 6.72 12.59 4.66ZM32.06 8.94C34.56 11.91 36.09 15.76 36.09 19.99C36.09 20.63 36.06 21.24 35.99 21.86C35.45 21.78 35.04 21.72 34.35 21.66C32.01 21.47 28.93 21.47 25.59 21.98C24.72 19.67 23.76 17.52 22.77 15.51C27.42 13.7 30.36 11.01 32.06 8.94ZM19.85 16.47C20.8 18.37 21.72 20.41 22.58 22.6C18.62 23.8 15.02 26.54 12.25 29.09C10.78 30.44 9.57 31.72 8.66 32.73C5.19 29.63 2.99 25.09 2.99 20C2.99 19.49 3.03 19.01 3.07 18.52C5.21 18.61 12.07 18.68 19.85 16.47ZM29.81 24.64C32.12 24.55 33.94 24.72 35.39 24.88C34.3 28.64 31.96 31.84 28.87 33.99C28.37 30.83 27.6 27.79 26.67 24.93C27.75 24.78 28.81 24.69 29.81 24.64ZM23.66 25.48C24.73 28.65 25.58 32.02 26.05 35.56C24.05 36.43 21.86 36.92 19.54 36.92C16.45 36.92 13.58 36.04 11.11 34.55C11.94 33.64 12.98 32.53 14.26 31.37C16.92 28.93 20.39 26.44 23.66 25.48Z" fill="#070707" fill-opacity="1.000000" fill-rule="nonzero"/>
	<path id="Vector" d="M19.55 0C8.78 0 0 8.98 0 19.99C0 31.01 8.78 39.99 19.55 39.99C30.32 39.99 39.1 31.01 39.1 19.99C39.1 8.98 30.32 0 19.55 0ZM2.43 27.45Q1 24.02 1 19.99Q1 15.96 2.43 12.53Q3.79 9.28 6.45 6.56Q9.32 3.63 12.8 2.24Q15.93 1 19.55 1Q23.17 1 26.3 2.24Q29.78 3.63 32.65 6.56Q35.31 9.28 36.67 12.53Q38.1 15.96 38.1 19.99Q38.1 24.02 36.67 27.45Q35.31 30.71 32.65 33.43Q29.78 36.36 26.3 37.75Q23.17 38.99 19.55 38.99Q15.93 38.99 12.8 37.75Q9.32 36.36 6.45 33.43Q3.79 30.71 2.43 27.45ZM29.73 8.53Q30.23 8 30.68 7.42L31.29 6.66L30.54 6.03Q28.09 4.01 25.29 3.02Q22.59 2.07 19.55 2.07Q17.49 2.07 15.33 2.61L13.88 2.97L14.77 4.18Q17.86 8.34 20.51 13.24L20.93 14L21.74 13.7Q26.58 11.9 29.73 8.53ZM29.11 6.19C26.41 4.22 23.12 3.07 19.55 3.07C18.56 3.07 17.58 3.17 16.64 3.35C16.28 3.41 15.92 3.49 15.57 3.58C15.77 3.85 15.99 4.14 16.21 4.46C17.56 6.32 19.33 8.95 21.39 12.76C25.22 11.34 27.72 9.27 29.25 7.57C29.35 7.46 29.44 7.35 29.53 7.25C29.66 7.1 29.78 6.95 29.9 6.8C29.75 6.67 29.59 6.55 29.43 6.43C29.32 6.35 29.22 6.27 29.11 6.19ZM3.58 16.46Q11.04 16.69 18.68 14.64L19.92 14.31L19.3 13.19Q16.5 8.15 13.39 4.05L12.9 3.41L12.17 3.75Q8.67 5.4 6.34 8.08Q3.78 11.02 2.65 15.19L2.32 16.42L3.58 16.46ZM17.91 12.78C15.61 8.73 13.69 6.1 12.59 4.66C8.53 6.57 5.39 10.11 3.92 14.46C3.81 14.79 3.71 15.12 3.61 15.46C3.91 15.47 4.26 15.47 4.65 15.47C7.32 15.48 12.11 15.24 17.42 13.93C17.75 13.85 18.09 13.77 18.42 13.68C18.25 13.37 18.08 13.07 17.91 12.78ZM36.99 21.97Q37.09 20.95 37.09 19.99Q37.09 16.67 36.02 13.74Q34.96 10.82 32.83 8.29L32.05 7.37L31.29 8.3Q30.88 8.8 30.44 9.27Q27.24 12.69 22.41 14.58L21.4 14.98L21.88 15.95Q23.49 19.24 24.66 22.34L24.94 23.1L25.74 22.97Q28.93 22.49 32.11 22.55Q33.19 22.57 34.26 22.65Q34.81 22.7 35.58 22.81Q35.76 22.84 35.85 22.85L36.88 22.99L36.99 21.97ZM35 21.72C34.81 21.7 34.59 21.68 34.35 21.66C32.01 21.47 28.93 21.47 25.59 21.98C24.85 20.01 24.04 18.16 23.21 16.42C23.07 16.11 22.92 15.81 22.77 15.51C23.09 15.39 23.4 15.26 23.7 15.13C27.29 13.56 29.77 11.49 31.4 9.7C31.64 9.44 31.86 9.18 32.06 8.94C32.28 9.2 32.49 9.46 32.7 9.74C34.82 12.59 36.09 16.13 36.09 19.99C36.09 20.29 36.09 20.57 36.07 20.86C36.05 21.2 36.03 21.53 35.99 21.86C35.64 21.81 35.35 21.76 35 21.72ZM12.93 29.83Q18.19 24.98 22.87 23.56L23.9 23.24L23.51 22.24Q22.29 19.12 20.74 16.02L20.37 15.28L19.58 15.5Q11.53 17.79 3.57 17.54Q3.34 17.53 3.11 17.52L2.15 17.48L2.07 18.45L2.07 18.47Q1.99 19.46 1.99 20Q1.99 24.12 3.55 27.54Q5.05 30.84 8 33.48L8.74 34.15L9.41 33.4Q11.16 31.44 12.93 29.83ZM22.2 21.67C22.33 21.98 22.45 22.29 22.58 22.6C22.26 22.7 21.94 22.8 21.63 22.92C18.04 24.24 14.8 26.75 12.25 29.09C10.81 30.41 9.62 31.67 8.72 32.67L8.66 32.73C8.41 32.51 8.17 32.28 7.94 32.04C4.89 28.98 2.99 24.73 2.99 20C2.99 19.49 3.03 19.01 3.07 18.52C5.21 18.61 12.07 18.68 19.85 16.47C20.66 18.1 21.46 19.83 22.2 21.67ZM33.64 30.74Q35.45 28.28 36.35 25.16L36.68 24.02L35.5 23.88Q32.44 23.54 29.76 23.64Q28.18 23.72 26.53 23.94L25.34 24.09L25.71 25.24Q27.19 29.77 27.88 34.15L28.13 35.73L29.44 34.81Q31.94 33.07 33.64 30.74ZM22.59 37.65Q24.56 37.29 26.45 36.48L27.15 36.18L27.05 35.43Q26.36 30.33 24.6 25.16L24.3 24.26L23.38 24.52Q18.77 25.86 13.58 30.63Q12.14 31.94 10.37 33.88L9.54 34.78L10.59 35.41Q12.89 36.79 15.38 37.41Q17.4 37.92 19.54 37.92Q21.09 37.92 22.59 37.65ZM34.38 24.77C33.12 24.66 31.61 24.57 29.81 24.64C29.12 24.67 28.41 24.73 27.68 24.8C27.34 24.84 27.01 24.88 26.67 24.93C26.77 25.25 26.87 25.57 26.97 25.89C27.66 28.14 28.25 30.48 28.68 32.9C28.75 33.26 28.81 33.63 28.87 33.99C29.17 33.78 29.48 33.55 29.77 33.32C32.16 31.4 34.02 28.82 35.08 25.85C35.19 25.53 35.29 25.21 35.39 24.88C35.07 24.84 34.73 24.81 34.38 24.77ZM11.8 33.8C12.5 33.06 13.31 32.23 14.26 31.37C16.92 28.93 20.39 26.44 23.66 25.48C24.73 28.65 25.58 32.02 26.05 35.56C24.05 36.43 21.86 36.92 19.54 36.92C16.81 36.92 14.26 36.24 12 35.05C11.7 34.9 11.4 34.73 11.11 34.55C11.32 34.31 11.56 34.06 11.8 33.8Z" fill="#070707" fill-opacity="1.000000" fill-rule="evenodd"/>
</svg>
