<svg width="39.108261" height="39.998047" viewBox="0 0 39.1083 39.998" fill="none" xmlns="http://www.w3.org/2000/svg" xmlns:xlink="http://www.w3.org/1999/xlink">
	<desc>
			Created with Pixso.
	</desc>
	<defs/>
	<path id="Vector" d="M11.35 0C5.1 0 0 5.22 0 11.62L0 28.4C0 34.78 5.1 39.99 11.35 39.99L27.77 39.99C34.01 39.99 39.1 34.77 39.1 28.38L39.1 11.61C39.1 5.21 34.01 0 27.76 0L11.35 0L11.35 0ZM11.35 3.08L27.76 3.08C32.38 3.08 36.09 6.88 36.09 11.62L36.09 28.39C36.09 33.13 32.38 36.93 27.77 36.93L11.35 36.93C6.72 36.93 3 33.13 3 28.41L3 11.63C3.01 6.88 6.73 3.08 11.35 3.08ZM31.59 6.16C30.76 6.16 30.09 6.84 30.09 7.69C30.09 8.55 30.76 9.23 31.59 9.23C32.43 9.23 33.1 8.55 33.1 7.69C33.1 6.84 32.43 6.16 31.59 6.16ZM19.56 9.23C13.77 9.23 9.03 14.08 9.03 20C9.03 25.92 13.77 30.77 19.56 30.77C25.35 30.77 30.09 25.92 30.09 20C30.09 14.08 25.35 9.23 19.56 9.23ZM19.56 12.31C23.73 12.31 27.08 15.73 27.08 20C27.08 24.27 23.73 27.69 19.56 27.69C15.38 27.69 12.04 24.27 12.04 20C12.04 15.73 15.38 12.31 19.56 12.31Z" fill="#070707" fill-opacity="1.000000" fill-rule="nonzero"/>
	<path id="Vector" d="M11.35 0C5.1 0 0 5.22 0 11.62L0 28.4C0 34.78 5.1 39.99 11.35 39.99L27.77 39.99C34.01 39.99 39.1 34.77 39.1 28.38L39.1 11.61C39.1 5.21 34.01 0 27.76 0L11.35 0L11.35 0ZM12.35 1L12.35 1L11.35 1Q9.35 1 7.62 1.69Q5.66 2.46 4.04 4.11Q2.55 5.64 1.79 7.47Q1 9.38 1 11.62L1 28.4Q1 30.63 1.79 32.53Q2.55 34.36 4.04 35.89Q5.65 37.53 7.6 38.3Q9.34 38.99 11.35 38.99L27.77 38.99Q29.76 38.99 31.49 38.31Q33.45 37.54 35.06 35.89Q36.54 34.37 37.3 32.54Q38.1 30.63 38.1 28.38L38.1 11.61Q38.1 9.36 37.3 7.44Q36.54 5.62 35.06 4.1Q33.45 2.46 31.5 1.68Q29.76 1 27.76 1L12.35 1ZM31.32 2.76Q29.68 2.08 27.76 2.08L11.35 2.08Q9.43 2.08 7.79 2.76Q6.11 3.46 4.73 4.87Q3.47 6.17 2.79 7.72Q2.01 9.5 2 11.63L2 28.41Q2 30.49 2.76 32.25Q3.44 33.82 4.72 35.14Q6.1 36.54 7.77 37.24Q9.42 37.93 11.35 37.93L27.77 37.93Q29.68 37.93 31.31 37.25Q32.99 36.55 34.38 35.13Q35.65 33.83 36.33 32.26Q37.09 30.49 37.09 28.39L37.09 11.62Q37.09 9.51 36.33 7.74Q35.65 6.18 34.38 4.87Q33 3.46 31.32 2.76ZM11.35 3.08L27.76 3.08C32.38 3.08 36.09 6.88 36.09 11.62L36.09 28.39C36.09 33.13 32.38 36.93 27.77 36.93L11.35 36.93C6.72 36.93 3 33.13 3 28.41L3 11.63C3.01 6.88 6.73 3.08 11.35 3.08ZM31.59 6.16C30.76 6.16 30.09 6.84 30.09 7.69C30.09 8.55 30.76 9.23 31.59 9.23C32.43 9.23 33.1 8.55 33.1 7.69C33.1 6.84 32.43 6.16 31.59 6.16ZM31.23 8.12Q31.09 7.98 31.09 7.69Q31.09 7.41 31.23 7.27Q31.36 7.16 31.59 7.16Q31.83 7.16 31.95 7.27Q32.1 7.41 32.1 7.69Q32.1 7.98 31.95 8.12Q31.83 8.23 31.59 8.23Q31.36 8.23 31.23 8.12ZM19.56 9.23C13.77 9.23 9.03 14.08 9.03 20C9.03 25.92 13.77 30.77 19.56 30.77C25.35 30.77 30.09 25.92 30.09 20C30.09 14.08 25.35 9.23 19.56 9.23ZM10.75 23.79Q10.03 22.05 10.03 20Q10.03 17.95 10.75 16.2Q11.45 14.51 12.84 13.09Q14.33 11.57 16.14 10.86Q17.73 10.23 19.56 10.23Q21.39 10.23 22.97 10.86Q24.79 11.57 26.28 13.09Q27.66 14.51 28.36 16.2Q29.09 17.95 29.09 20Q29.09 22.05 28.36 23.79Q27.66 25.49 26.28 26.9Q24.79 28.43 22.97 29.14Q21.39 29.77 19.56 29.77Q17.73 29.77 16.14 29.14Q14.33 28.43 12.84 26.9Q11.45 25.49 10.75 23.79ZM27.38 23.52Q28.08 21.91 28.08 20Q28.08 18.09 27.38 16.47Q26.76 15.05 25.6 13.85Q24.34 12.57 22.82 11.93Q21.32 11.31 19.56 11.31Q17.8 11.31 16.3 11.93Q14.77 12.57 13.52 13.85Q12.35 15.05 11.73 16.47Q11.04 18.09 11.04 20Q11.04 21.91 11.73 23.52Q12.35 24.95 13.52 26.14Q14.77 27.43 16.3 28.06Q17.8 28.69 19.56 28.69Q21.32 28.69 22.82 28.06Q24.34 27.43 25.6 26.14Q26.76 24.95 27.38 23.52ZM19.56 12.31C23.73 12.31 27.08 15.73 27.08 20C27.08 24.27 23.73 27.69 19.56 27.69C15.38 27.69 12.04 24.27 12.04 20C12.04 15.73 15.38 12.31 19.56 12.31Z" fill="#070707" fill-opacity="1.000000" fill-rule="evenodd"/>
</svg>
