<svg width="40.666729" height="40.559082" viewBox="0 0 40.6667 40.5591" fill="none" xmlns="http://www.w3.org/2000/svg" xmlns:xlink="http://www.w3.org/1999/xlink">
	<desc>
			Created with Pixso.
	</desc>
	<defs/>
	<path id="Vector" d="M34.53 0.25L6.13 0.25C2.88 0.25 0.25 2.88 0.25 6.11L0.25 34.44C0.25 37.67 2.88 40.3 6.13 40.3L34.53 40.3C37.77 40.3 40.41 37.67 40.41 34.44L40.41 6.11C40.41 2.88 37.77 0.25 34.53 0.25ZM38.06 34.44C38.06 36.38 36.47 37.96 34.53 37.96L6.13 37.96C4.18 37.96 2.6 36.38 2.6 34.44L2.6 6.11C2.6 4.17 4.18 2.59 6.13 2.59L34.53 2.59C36.47 2.59 38.06 4.17 38.06 6.11L38.06 34.44Z" fill="#070707" fill-opacity="1.000000" fill-rule="nonzero"/>
	<path id="Vector" d="M6.13 0.25C2.88 0.25 0.25 2.88 0.25 6.11L0.25 34.44C0.25 37.67 2.88 40.3 6.13 40.3L34.53 40.3C37.77 40.3 40.41 37.67 40.41 34.44L40.41 6.11C40.41 2.88 37.77 0.25 34.53 0.25L6.13 0.25ZM34.53 37.96L6.13 37.96C4.18 37.96 2.6 36.38 2.6 34.44L2.6 6.11C2.6 4.17 4.18 2.59 6.13 2.59L34.53 2.59C36.47 2.59 38.06 4.17 38.06 6.11L38.06 34.44C38.06 36.38 36.47 37.96 34.53 37.96Z" stroke="#070707" stroke-opacity="1.000000" stroke-width="0.500000"/>
	<path id="Vector" d="M31.37 29.28C29.94 29.28 28.51 29.28 27.06 29.28C27.06 29.21 27.06 29.15 27.06 29.08C27.06 26.75 27.06 24.41 27.06 22.08C27.06 21.58 27.02 21.09 26.9 20.61C26.38 18.61 24.16 18.73 23.27 19.67C22.83 20.15 22.54 20.69 22.53 21.35C22.52 21.51 22.51 21.67 22.51 21.83C22.51 24.24 22.51 26.66 22.51 29.07C22.51 29.14 22.51 29.21 22.51 29.28C21.07 29.28 19.64 29.28 18.21 29.28C18.21 24.82 18.21 20.37 18.21 15.91C19.64 15.91 21.07 15.91 22.51 15.91C22.51 16.52 22.51 17.11 22.51 17.71C22.52 17.71 22.53 17.72 22.54 17.72C22.58 17.68 22.61 17.64 22.64 17.6C23.07 17 23.56 16.47 24.22 16.11C24.96 15.71 25.75 15.57 26.58 15.6C27.47 15.62 28.32 15.82 29.09 16.31C30.07 16.92 30.67 17.83 31.02 18.91C31.29 19.76 31.38 20.63 31.38 21.51C31.38 24.05 31.38 26.59 31.38 29.12C31.38 29.17 31.38 29.22 31.37 29.28Z" fill="#070707" fill-opacity="1.000000" fill-rule="nonzero"/>
	<path id="Vector" d="M22.51 17.71L22.51 15.91L18.21 15.91L18.21 29.28L22.51 29.28L22.51 29.07C22.51 28.59 22.51 28.11 22.51 27.62C22.51 25.69 22.51 23.76 22.51 21.83C22.51 21.67 22.52 21.51 22.53 21.35C22.54 20.69 22.83 20.15 23.27 19.67C24.16 18.73 26.38 18.61 26.9 20.61C27.02 21.09 27.06 21.58 27.06 22.08C27.06 23.83 27.06 25.58 27.06 27.33C27.06 27.92 27.06 28.5 27.06 29.08L27.06 29.28L31.37 29.28C31.38 29.22 31.38 29.17 31.38 29.12C31.38 28.58 31.38 28.04 31.38 27.49C31.38 25.5 31.38 23.5 31.38 21.51C31.38 20.63 31.29 19.76 31.02 18.91C30.67 17.83 30.07 16.92 29.09 16.31C28.32 15.82 27.47 15.62 26.58 15.6C25.75 15.57 24.96 15.71 24.22 16.11C23.56 16.47 23.07 17 22.64 17.6C22.61 17.64 22.58 17.68 22.54 17.72C22.53 17.72 22.52 17.71 22.51 17.71ZM31.34 29.25Q31.34 29.24 31.35 29.23Q31.35 29.16 31.35 29.12L31.35 25.3L31.35 21.51Q31.35 20.03 30.99 18.92Q30.56 17.59 29.66 16.77Q29.38 16.53 29.07 16.33Q29.07 16.33 29.07 16.33Q28.01 15.67 26.58 15.63Q25.24 15.59 24.24 16.14Q23.78 16.39 23.37 16.79Q23.01 17.13 22.66 17.62Q22.64 17.64 22.61 17.69Q22.58 17.72 22.57 17.74L22.56 17.76L22.53 17.75Q22.53 17.75 22.51 17.74Q22.5 17.74 22.5 17.74L22.48 17.73L22.48 15.95L18.24 15.95L18.24 29.25L22.48 29.25L22.48 29.07L22.48 25.45L22.48 21.83Q22.48 21.73 22.49 21.55Q22.49 21.42 22.49 21.35Q22.5 21.11 22.55 20.89Q22.6 20.65 22.71 20.43Q22.89 20.03 23.25 19.65Q23.59 19.29 24.13 19.11Q24.5 18.99 24.86 18.98Q25.05 18.98 25.23 19Q25.64 19.06 25.98 19.26Q26.13 19.35 26.26 19.46Q26.31 19.5 26.36 19.55Q26.76 19.95 26.93 20.6Q27.09 21.23 27.09 22.08L27.09 29.06L27.09 29.25L31.34 29.25Z" fill="#070707" fill-opacity="1.000000" fill-rule="evenodd"/>
	<path id="Vector" d="M15.58 29.29C14.15 29.29 12.73 29.29 11.3 29.29C11.3 24.83 11.3 20.38 11.3 15.91C12.72 15.91 14.14 15.91 15.58 15.91C15.58 20.36 15.58 24.82 15.58 29.29Z" fill="#070707" fill-opacity="1.000000" fill-rule="nonzero"/>
	<path id="Vector" d="M11.3 29.29L15.58 29.29L15.58 15.91L11.3 15.91L11.3 29.29ZM11.33 15.94L11.33 29.26L15.55 29.26L15.55 15.94L11.33 15.94Z" fill="#070707" fill-opacity="1.000000" fill-rule="evenodd"/>
	<path id="Vector" d="M13.62 9.26C14.97 9.26 15.92 10.22 15.93 11.58C15.93 12.92 14.96 13.88 13.59 13.88C12.25 13.88 11.29 12.92 11.29 11.57C11.29 10.22 12.26 9.26 13.62 9.26Z" fill="#070707" fill-opacity="1.000000" fill-rule="nonzero"/>
	<path id="Vector" d="M13.62 9.26C14.97 9.26 15.92 10.22 15.93 11.58C15.93 12.92 14.96 13.88 13.59 13.88C12.25 13.88 11.29 12.92 11.29 11.57C11.29 10.22 12.26 9.26 13.62 9.26ZM15.73 10.65Q15.9 11.08 15.9 11.58Q15.9 12.07 15.73 12.49Q15.63 12.75 15.47 12.97Q15.37 13.1 15.25 13.21Q15.17 13.3 15.07 13.37Q14.83 13.56 14.52 13.68Q14.09 13.85 13.59 13.85Q13.1 13.85 12.68 13.68L12.68 13.68Q12.41 13.57 12.19 13.41Q12.07 13.32 11.96 13.21Q11.86 13.11 11.78 13Q11.6 12.77 11.49 12.49Q11.32 12.06 11.32 11.57Q11.32 11.08 11.49 10.66Q11.49 10.66 11.49 10.65Q11.6 10.39 11.76 10.17Q11.85 10.04 11.97 9.93Q12.06 9.84 12.17 9.75Q12.41 9.57 12.69 9.46Q13.12 9.29 13.62 9.29Q14.12 9.29 14.54 9.46Q14.81 9.56 15.03 9.73Q15.15 9.82 15.26 9.93Q15.35 10.02 15.43 10.12Q15.61 10.36 15.73 10.65Z" fill="#070707" fill-opacity="1.000000" fill-rule="evenodd"/>
</svg>
