<svg width="68.000000" height="68.000000" viewBox="0 0 68 68" fill="none" xmlns="http://www.w3.org/2000/svg" xmlns:xlink="http://www.w3.org/1999/xlink">
	<desc>
			Created with Pixso.
	</desc>
	<defs>
		<clipPath id="clip5_30">
			<rect rx="-0.500000" width="67.000000" height="67.000000" transform="translate(0.500000 0.500000)" fill="white" fill-opacity="0"/>
		</clipPath>
	</defs>
	<rect rx="-0.500000" width="67.000000" height="67.000000" transform="translate(0.500000 0.500000)" fill="#FFFFFF" fill-opacity="0"/>
	<g clip-path="url(#clip5_30)">
		<path d="M30.5 24L21.4 36L39.59 36L30.5 24Z" fill="#FFD645" fill-opacity="1.000000" fill-rule="evenodd"/>
		<path d="M42 17L29 36.5L54.99 36.5L42 17Z" fill="#FFD645" fill-opacity="1.000000" fill-rule="evenodd"/>
		<path d="M66 47.94L1.99 47.94C0.89 47.94 0 48.83 0 49.93L0 66C0 67.1 0.89 68 1.99 68L66 68C67.1 68 68 67.1 68 66L68 49.93C68 48.83 67.1 47.94 66 47.94ZM64.01 64.01L59.89 64.01L59.89 57.9C59.89 56.8 59 55.91 57.9 55.91C56.8 55.91 55.91 56.8 55.91 57.9L55.91 64.01L51.92 64.01L51.92 61.89C51.92 60.79 51.03 59.89 49.93 59.89C48.83 59.89 47.94 60.79 47.94 61.89L47.94 64.01L43.96 64.01L43.96 57.9C43.96 56.8 43.06 55.91 41.96 55.91C40.86 55.91 39.97 56.8 39.97 57.9L39.97 64.01L35.99 64.01L35.99 61.89C35.99 60.79 35.1 59.89 34 59.89C32.89 59.89 32 60.79 32 61.89L32 64.01L28.02 64.01L28.02 57.9C28.02 56.8 27.13 55.91 26.03 55.91C24.93 55.91 24.03 56.8 24.03 57.9L24.03 64.01L20.05 64.01L20.05 61.89C20.05 60.79 19.16 59.89 18.06 59.89C16.96 59.89 16.07 60.79 16.07 61.89L16.07 64.01L12.08 64.01L12.08 57.9C12.08 56.8 11.19 55.91 10.09 55.91C8.99 55.91 8.1 56.8 8.1 57.9L8.1 64.01L3.98 64.01L3.98 51.92L64.01 51.92L64.01 64.01Z" fill="#000000" fill-opacity="1.000000" fill-rule="nonzero"/>
		<path d="M66 12.08C67.1 12.08 68 11.19 68 10.09L68 1.99C68 0.89 67.1 0 66 0L57.9 0C56.8 0 55.91 0.89 55.91 1.99L55.91 3.98L12.08 3.98L12.08 1.99C12.08 0.89 11.19 0 10.09 0L1.99 0C0.89 0 0 0.89 0 1.99L0 10.09C0 11.19 0.89 12.08 1.99 12.08L3.98 12.08L3.98 32L1.99 32C0.89 32 0 32.89 0 34L0 41.96C0 43.06 0.89 43.96 1.99 43.96L10.09 43.96C11.19 43.96 12.08 43.06 12.08 41.96L12.08 39.97C13.63 39.97 54.44 39.97 55.91 39.97L55.91 41.96C55.91 43.06 56.8 43.96 57.9 43.96L66 43.96C67.1 43.96 68 43.06 68 41.96L68 34C68 32.89 67.1 32 66 32L64.01 32L64.01 12.08L66 12.08ZM3.98 3.98L8.1 3.98L8.1 8.1L3.98 8.1L3.98 3.98ZM8.1 39.97L3.98 39.97L3.98 35.99L8.1 35.99L8.1 39.97ZM22.04 35.99L30.01 25.36L37.98 35.99L22.04 35.99ZM42.96 35.99L35.97 26.66L41.96 17.66L54.18 35.99L42.96 35.99ZM56.62 32.47L43.62 12.97C42.84 11.79 41.1 11.78 40.31 12.97L33.43 23.28L31.6 20.85C30.81 19.78 29.21 19.79 28.42 20.85L17.06 35.99L12.08 35.99L12.08 34C12.08 32.89 11.19 32 10.09 32L7.96 32L7.96 12.08L10.09 12.08C11.19 12.08 12.08 11.19 12.08 10.09L12.08 7.96L55.91 7.96L55.91 10.09C55.91 11.19 56.8 12.08 57.9 12.08L60.03 12.08L60.03 32L57.9 32C57.41 32 56.97 32.18 56.62 32.47ZM64.01 39.97L59.89 39.97L59.89 35.99L64.01 35.99L64.01 39.97ZM59.89 8.1L59.89 3.98L64.01 3.98L64.01 8.1L59.89 8.1Z" fill="#000000" fill-opacity="1.000000" fill-rule="nonzero"/>
		<path d="M18.06 12.08C14.76 12.08 12.08 14.76 12.08 18.06C12.08 21.35 14.76 24.03 18.06 24.03C21.35 24.03 24.03 21.35 24.03 18.06C24.03 14.76 21.35 12.08 18.06 12.08ZM18.06 20.05C16.96 20.05 16.07 19.16 16.07 18.06C16.07 16.96 16.96 16.07 18.06 16.07C19.16 16.07 20.05 16.96 20.05 18.06C20.05 19.16 19.16 20.05 18.06 20.05Z" fill="#000000" fill-opacity="1.000000" fill-rule="nonzero"/>
	</g>
</svg>
