<svg width="68.000000" height="68.000000" viewBox="0 0 68 68" fill="none" xmlns="http://www.w3.org/2000/svg" xmlns:xlink="http://www.w3.org/1999/xlink">
	<desc>
			Created with Pixso.
	</desc>
	<defs>
		<clipPath id="clip5_83">
			<rect rx="-0.500000" width="67.000000" height="67.000000" transform="translate(0.500000 0.500000)" fill="white" fill-opacity="0"/>
		</clipPath>
	</defs>
	<rect rx="-0.500000" width="67.000000" height="67.000000" transform="translate(0.500000 0.500000)" fill="#FFFFFF" fill-opacity="0"/>
	<g clip-path="url(#clip5_83)">
		<path d="" fill="#FFD645" fill-opacity="1.000000" fill-rule="nonzero"/>
		<path d="M24.5 22.5L18 26.5L18 35.5L19.5 37L24.5 34" stroke="#000000" stroke-opacity="1.000000" stroke-width="1.000000"/>
		<path d="M24 22.5L24.5 34L22.5 35L18 37.5L17.5 35L18 26.5L24 22.5Z" fill="#FFD645" fill-opacity="1.000000" fill-rule="nonzero"/>
		<path d="M24 22.5L18 26.5L17.5 35L18 37.5L22.5 35L24.5 34L24 22.5Z" stroke="#000000" stroke-opacity="1.000000" stroke-width="1.000000"/>
		<path d="M26 31.5L27.5 12.5L33.5 2L37 4L44 21.5L49 27.5L49 38L44 35L38.5 35L42 45L26 45L29 35L26 31.5Z" fill="#FFD645" fill-opacity="1.000000" fill-rule="nonzero"/>
		<path d="M26 31.5L29 35L26 45L42 45L38.5 35L44 35L49 38L49 27.5L44 21.5L37 4L33.5 2L27.5 12.5L26 31.5Z" stroke="#000000" stroke-opacity="1.000000" stroke-width="1.000000"/>
		<path d="M62.02 7.96L40.97 7.96C40.9 7.96 40.84 7.97 40.78 7.97C39.39 5.24 37.59 2.76 35.4 0.58C34.63 -0.2 33.36 -0.2 32.59 0.58C30.4 2.76 28.6 5.24 27.21 7.97C27.15 7.97 27.09 7.96 27.02 7.96L5.97 7.96C2.68 7.96 0 10.65 0 13.94L0 49.8C0 53.1 2.68 55.78 5.97 55.78L23.28 55.78L20.6 64.01L18.06 64.01C16.96 64.01 16.07 64.9 16.07 66C16.07 67.1 16.96 68 18.06 68C18.36 68 49.65 68 49.93 68C51.03 68 51.92 67.1 51.92 66C51.92 64.9 51.03 64.01 49.93 64.01L47.39 64.01L44.71 55.78L62.02 55.78C65.31 55.78 68 53.1 68 49.8L68 13.94C68 10.65 65.31 7.96 62.02 7.96ZM34 4.92C35.61 6.82 36.91 8.92 37.89 11.16C36.66 11.68 35.34 11.95 34 11.95C32.65 11.95 31.33 11.68 30.1 11.16C31.08 8.92 32.38 6.82 34 4.92ZM28.02 21.91C28.02 19.72 28.11 17.66 28.81 14.93C30.45 15.59 32.2 15.93 34 15.93C35.79 15.93 37.54 15.59 39.18 14.93C39.87 17.63 39.97 19.69 39.97 21.91L39.97 31.87C38.76 31.87 29.97 31.87 28.02 31.87L28.02 21.91ZM39.2 43.82L28.79 43.82L31.45 35.85L36.54 35.85L39.2 43.82ZM3.98 13.94C3.98 12.84 4.87 11.95 5.97 11.95L25.55 11.95C24.66 14.59 24.16 17.32 24.06 20.11C19.5 21.03 16.07 25.06 16.07 29.88L16.07 37.85C16.07 38.54 16.42 39.18 17.01 39.54C17.6 39.91 18.33 39.94 18.95 39.63L26.5 35.85L27.25 35.85L24.59 43.82L3.98 43.82L3.98 13.94ZM24.03 24.24L24.03 32.63L20.05 34.62L20.05 29.88C20.05 27.28 21.72 25.07 24.03 24.24ZM24.79 64.01L27.47 55.78L40.52 55.78L43.2 64.01L24.79 64.01ZM64.01 49.8C64.01 50.9 63.12 51.79 62.02 51.79C61.4 51.79 6.29 51.79 5.97 51.79C4.87 51.79 3.98 50.9 3.98 49.8L3.98 47.81C6.16 47.81 61.7 47.81 64.01 47.81L64.01 49.8ZM64.01 43.82L43.4 43.82L40.74 35.85L41.49 35.85L49.04 39.63C49.66 39.94 50.39 39.91 50.98 39.54C51.57 39.18 51.92 38.54 51.92 37.85L51.92 29.88C51.92 25.06 48.49 21.03 43.93 20.11C43.83 17.32 43.33 14.59 42.44 11.95L62.02 11.95C63.12 11.95 64.01 12.84 64.01 13.94L64.01 43.82ZM43.96 32.63L43.96 24.24C46.28 25.07 47.94 27.28 47.94 29.88L47.94 34.62L43.96 32.63Z" fill="#000000" fill-opacity="1.000000" fill-rule="nonzero"/>
		<path d="M35.99 21.91C35.99 23.01 35.1 23.9 34 23.9C32.89 23.9 32 23.01 32 21.91C32 20.81 32.89 19.92 34 19.92C35.1 19.92 35.99 20.81 35.99 21.91Z" fill="#000000" fill-opacity="1.000000" fill-rule="evenodd"/>
	</g>
</svg>
