<svg width="68.000000" height="68.000000" viewBox="0 0 68 68" fill="none" xmlns="http://www.w3.org/2000/svg" xmlns:xlink="http://www.w3.org/1999/xlink">
	<desc>
			Created with Pixso.
	</desc>
	<defs>
		<clipPath id="clip5_105">
			<rect rx="-0.500000" width="67.000000" height="67.000000" transform="translate(0.500000 0.500000)" fill="white" fill-opacity="0"/>
		</clipPath>
	</defs>
	<rect rx="-0.500000" width="67.000000" height="67.000000" transform="translate(0.500000 0.500000)" fill="#FFFFFF" fill-opacity="0"/>
	<g clip-path="url(#clip5_105)">
		<rect x="46.000000" y="27.000000" width="12.000000" height="30.000000" fill="#FFD645" fill-opacity="1.000000"/>
		<rect x="11.000000" y="43.000000" width="27.000000" height="14.000000" fill="#FFD645" fill-opacity="1.000000"/>
		<rect x="11.000000" y="27.000000" width="27.000000" height="6.000000" fill="#FFD645" fill-opacity="1.000000"/>
		<path d="M62.02 0L5.97 0C2.68 0 0 2.68 0 5.97L0 62.02C0 65.31 2.68 68 5.97 68L62.02 68C65.31 68 68 65.31 68 62.02L68 5.97C68 2.68 65.31 0 62.02 0ZM3.98 5.97C3.98 4.87 4.87 3.98 5.97 3.98L15.93 3.98L15.93 15.93L3.98 15.93L3.98 5.97ZM64.01 62.02C64.01 63.12 63.12 64.01 62.02 64.01L5.97 64.01C4.87 64.01 3.98 63.12 3.98 62.02L3.98 19.92L64.01 19.92L64.01 62.02ZM64.01 15.93L19.92 15.93L19.92 3.98L62.02 3.98C63.12 3.98 64.01 4.87 64.01 5.97L64.01 15.93Z" fill="#000000" fill-opacity="1.000000" fill-rule="nonzero"/>
		<path d="M58.03 7.96L54.05 7.96C52.95 7.96 52.06 8.86 52.06 9.96C52.06 11.06 52.95 11.95 54.05 11.95L58.03 11.95C59.13 11.95 60.03 11.06 60.03 9.96C60.03 8.86 59.13 7.96 58.03 7.96Z" fill="#000000" fill-opacity="1.000000" fill-rule="nonzero"/>
		<path d="M45.95 7.96L41.96 7.96C40.86 7.96 39.97 8.86 39.97 9.96C39.97 11.06 40.86 11.95 41.96 11.95L45.95 11.95C47.05 11.95 47.94 11.06 47.94 9.96C47.94 8.86 47.05 7.96 45.95 7.96Z" fill="#000000" fill-opacity="1.000000" fill-rule="nonzero"/>
		<path d="M34 7.96L30.01 7.96C28.91 7.96 28.02 8.86 28.02 9.96C28.02 11.06 28.91 11.95 30.01 11.95L34 11.95C35.1 11.95 35.99 11.06 35.99 9.96C35.99 8.86 35.1 7.96 34 7.96Z" fill="#000000" fill-opacity="1.000000" fill-rule="nonzero"/>
		<path d="M37.98 24.03L9.96 24.03C8.86 24.03 7.96 24.93 7.96 26.03L7.96 34C7.96 35.1 8.86 35.99 9.96 35.99L37.98 35.99C39.08 35.99 39.97 35.1 39.97 34L39.97 26.03C39.97 24.93 39.08 24.03 37.98 24.03ZM35.99 32L11.95 32L11.95 28.02L35.99 28.02L35.99 32Z" fill="#000000" fill-opacity="1.000000" fill-rule="nonzero"/>
		<path d="M58.03 24.03L45.95 24.03C44.85 24.03 43.96 24.93 43.96 26.03L43.96 58.03C43.96 59.13 44.85 60.03 45.95 60.03L58.03 60.03C59.13 60.03 60.03 59.13 60.03 58.03L60.03 26.03C60.03 24.93 59.13 24.03 58.03 24.03ZM56.04 56.04L47.94 56.04L47.94 28.02L56.04 28.02L56.04 56.04Z" fill="#000000" fill-opacity="1.000000" fill-rule="nonzero"/>
		<path d="M37.98 39.97L9.96 39.97C8.86 39.97 7.96 40.86 7.96 41.96L7.96 58.03C7.96 59.13 8.86 60.03 9.96 60.03L37.98 60.03C39.08 60.03 39.97 59.13 39.97 58.03L39.97 41.96C39.97 40.86 39.08 39.97 37.98 39.97ZM35.99 56.04L11.95 56.04L11.95 43.96L35.99 43.96L35.99 56.04Z" fill="#000000" fill-opacity="1.000000" fill-rule="nonzero"/>
	</g>
</svg>
