<svg width="115.000000" height="35.000000" viewBox="0 0 115 35" fill="none" xmlns="http://www.w3.org/2000/svg" xmlns:xlink="http://www.w3.org/1999/xlink">
	<desc>
			Created with Pixso.
	</desc>
	<defs/>
	<path id="Kelvin" d="M73.87 6.44C74.48 7 75.26 7.28 76.22 7.28Q77.24 7.28 78 6.84Q78.29 6.67 78.54 6.44C79.15 5.87 79.45 5.17 79.45 4.34Q79.45 3.64 79.18 3.07Q78.95 2.6 78.54 2.21C77.93 1.65 77.15 1.36 76.22 1.36C75.26 1.36 74.48 1.65 73.87 2.21C73.26 2.78 72.95 3.48 72.95 4.34C72.95 5.17 73.26 5.87 73.87 6.44ZM49.46 27L49.46 3.32L44 3.32L44 27L49.46 27ZM7.45 17.07L15 27L21.69 27L12.67 15.54L21.37 4.53L14.94 4.53L7.45 14.39L7.45 4.53L1.98 4.53L1.98 27L7.45 27L7.45 17.07ZM41.02 19.38C41.08 18.83 41.11 18.29 41.11 17.78C41.11 15.98 40.73 14.42 39.98 13.07C39.22 11.73 38.17 10.7 36.83 9.97Q36.81 9.96 36.79 9.95Q34.79 8.89 32.22 8.89Q29.57 8.89 27.52 10L27.52 10Q26.62 10.49 25.89 11.17Q24.97 12.04 24.33 13.21Q23.2 15.28 23.2 18.07Q23.2 20.85 24.35 22.93C25.12 24.32 26.18 25.39 27.55 26.14Q27.63 26.18 27.72 26.23Q29.7 27.25 32.22 27.25Q34.39 27.25 36.15 26.46C37.33 25.92 38.3 25.18 39.08 24.25Q39.7 23.5 40.11 22.66Q40.49 21.91 40.7 21.07L34.88 21.07C34.34 22.22 33.39 22.8 32.03 22.8Q31.17 22.8 30.48 22.46Q30.06 22.26 29.71 21.92C29.08 21.34 28.72 20.49 28.63 19.38L41.02 19.38ZM98.79 10.98C97.55 9.63 95.88 8.95 93.79 8.95C92.61 8.95 91.56 9.18 90.62 9.64C89.68 10.09 88.93 10.72 88.38 11.51L88.38 9.14L82.91 9.14L82.91 27L88.38 27L88.38 17.3C88.38 16.11 88.69 15.18 89.31 14.52C89.93 13.86 90.76 13.53 91.81 13.53C92.85 13.53 93.68 13.86 94.3 14.52C94.92 15.18 95.23 16.11 95.23 17.3L95.23 27L100.67 27L100.67 16.57Q100.67 13.27 99.05 11.28Q98.93 11.13 98.79 10.98ZM65.34 9.14L61.47 21.88L57.59 9.14L51.74 9.14L58.08 27L64.83 27L71.16 9.14L65.34 9.14ZM78.94 27L78.94 9.14L73.47 9.14L73.47 27L78.94 27ZM35.12 14.76Q35.52 15.43 35.52 16.34L28.67 16.34C28.82 15.36 29.21 14.6 29.83 14.07C30.46 13.54 31.24 13.27 32.16 13.27C33.12 13.27 33.92 13.55 34.56 14.1Q34.9 14.4 35.12 14.76Z" fill="#000000" fill-opacity="1.000000" fill-rule="evenodd"/>
	<circle id="Ellipse 1" cx="111.000000" cy="31.000000" r="4.000000" fill="#FDA300" fill-opacity="1.000000"/>
</svg>
